<svg width="383" height="292" viewBox="0 0 383 292" fill="none" xmlns="http://www.w3.org/2000/svg">
<circle r="115" transform="matrix(-1 0 0 1 175 147)" fill="#C8FDFB"/>
<path fill-rule="evenodd" clip-rule="evenodd" d="M227.704 182.053C227.798 181.971 228.612 182.772 230.009 184.3C230.718 185.055 231.556 186.007 232.443 187.181C233.339 188.345 234.417 189.637 235.428 191.19C235.95 191.956 236.498 192.759 237.067 193.595C237.631 194.437 238.142 195.359 238.711 196.289C239.876 198.137 240.92 200.223 242.056 202.4C244.201 206.815 246.251 211.825 247.885 217.257C249.465 222.704 250.469 228.026 251.068 232.896C251.297 235.341 251.554 237.66 251.581 239.843C251.608 240.934 251.68 241.985 251.664 242.999C251.642 244.011 251.618 244.981 251.597 245.908C251.591 247.764 251.389 249.432 251.27 250.897C251.162 252.364 250.977 253.617 250.792 254.637C250.45 256.679 250.203 257.794 250.078 257.777C249.758 257.734 250.362 253.208 250.311 245.894C250.294 244.98 250.278 244.024 250.261 243.026C250.24 242.029 250.134 240.994 250.074 239.923C249.984 237.777 249.674 235.501 249.406 233.104C248.724 228.329 247.691 223.12 246.14 217.773C244.536 212.442 242.572 207.507 240.548 203.128C239.472 200.97 238.494 198.892 237.404 197.041C236.871 196.109 236.397 195.184 235.874 194.335C235.346 193.489 234.84 192.677 234.357 191.901C230.424 185.733 227.456 182.264 227.704 182.053" fill="white"/>
<path fill-rule="evenodd" clip-rule="evenodd" d="M248.299 190.574C248.454 190.436 250.543 192.39 253.2 196.156C254.537 198.031 255.945 200.394 257.317 203.118C258.648 205.861 259.919 208.976 260.933 212.352C261.917 215.737 262.541 219.043 262.915 222.07C263.243 225.102 263.345 227.851 263.24 230.151C263.056 234.756 262.364 237.532 262.16 237.5C261.868 237.464 262.102 234.654 261.954 230.15C261.894 227.9 261.663 225.227 261.253 222.288C260.799 219.355 260.143 216.156 259.19 212.868C258.204 209.589 257.016 206.547 255.804 203.838C254.55 201.147 253.292 198.779 252.119 196.855C249.796 192.995 248.074 190.763 248.299 190.574" fill="white"/>
<path fill-rule="evenodd" clip-rule="evenodd" d="M123.558 71.9482C123.558 71.9482 120.764 73.8823 122.16 77.1071C123.558 80.3318 129.685 89.8976 137.961 89.5745C138.3 89.5626 127.535 71.9482 127.535 71.9482H123.558Z" fill="#FF7B5B"/>
<path fill-rule="evenodd" clip-rule="evenodd" d="M110.899 248.295C110.899 248.295 100.55 239.05 97.2368 240.706C93.1887 242.73 70.0188 265.432 70.9243 276.127C71.2963 280.507 76.3954 276.754 85.4818 267.329C94.5708 257.905 106.015 261.944 106.015 261.944L110.899 248.295Z" fill="#775298"/>
<path fill-rule="evenodd" clip-rule="evenodd" d="M136.041 263.887L123.547 256.392C123.547 256.392 91.1627 286.753 96.2221 290.801C100.06 293.871 102.315 291.118 111.403 281.692C120.489 272.269 132.002 277.688 132.002 277.688L136.041 263.887Z" fill="#775298"/>
<path fill-rule="evenodd" clip-rule="evenodd" d="M212.362 164.001L214.705 197.27L162.697 183.721L212.362 164.001Z" fill="#F3A683"/>
<path fill-rule="evenodd" clip-rule="evenodd" d="M162.696 184.866C162.696 184.866 208.188 187.733 214.246 185.712C214.246 185.712 223.136 273.052 207.317 282.474C191.497 291.9 155.996 278.099 155.996 278.099L165.582 259.251L186.248 257.905V224.247L184.766 224.583L162.696 184.866Z" fill="#112129"/>
<path fill-rule="evenodd" clip-rule="evenodd" d="M105.669 244.442C105.669 244.442 94.2263 249.154 97.9289 260.599C97.9289 260.599 136.989 291.227 155.996 284.158C166.644 280.199 178.083 249.987 186.085 224.176L214.246 185.712C214.246 185.712 200.964 186.376 196.534 186.359C188.066 186.327 162.696 184.866 162.696 184.866C162.696 184.866 149.443 254.203 144.722 255.886C140 257.567 105.669 244.442 105.669 244.442" fill="#22343D"/>
<path fill-rule="evenodd" clip-rule="evenodd" d="M173.297 97.9016C173.297 97.9016 200.561 72.3206 205.273 65.5878C209.984 58.8563 220.084 36.3055 232.534 26.8814L226.477 14.0909C226.477 14.0909 230.181 12.0721 232.534 17.456C232.534 17.456 241.284 -0.0445285 243.304 0.290391C245.326 0.626634 239.267 13.7547 239.267 13.7547C239.267 13.7547 247.683 1.63669 250.038 1.97426C252.392 2.3105 243.98 15.5961 243.98 15.5961C243.98 15.5961 253.402 4.66685 254.75 6.01315C256.096 7.35944 247.345 15.5961 247.345 15.5961C247.345 15.5961 256.768 10.1857 257.778 11.9689C258.789 13.7547 248.355 18.4661 248.355 18.4661C248.355 18.4661 247.345 26.2076 240.951 29.5727C240.951 29.5727 228.289 63.7821 216.845 74.8888L180.083 113.096L173.297 97.9016Z" fill="#FFC6B2"/>
<path fill-rule="evenodd" clip-rule="evenodd" d="M140.752 111.159C140.752 111.159 114.919 138.183 108.143 142.831C101.367 147.478 78.7241 157.368 69.185 169.732L56.4516 163.554C56.4516 163.554 54.3985 167.237 59.7611 169.642C59.7611 169.642 42.1774 178.229 42.4965 180.253C42.8129 182.276 55.9963 176.34 55.9963 176.34C55.9963 176.34 43.8004 184.643 44.1154 187.001C44.4305 189.359 57.7926 181.069 57.7926 181.069C57.7926 181.069 46.7762 190.39 48.1106 191.748C49.4423 193.107 57.7622 184.435 57.7622 184.435C57.7622 184.435 52.2632 193.808 54.0397 194.834C55.8136 195.86 60.6228 185.471 60.6228 185.471C60.6228 185.471 68.3722 184.536 71.7994 178.171C71.7994 178.171 104.201 165.279 115.416 153.939L155.738 125.368L140.752 111.159Z" fill="#FFC6B2"/>
<path fill-rule="evenodd" clip-rule="evenodd" d="M150.437 100.388L137.371 113.179L140.684 127.598C140.684 127.598 153.557 158.502 155.503 166.041C158.528 177.764 153.635 195.639 153.635 195.639C153.635 195.639 175.457 193.827 195.314 193.154C215.169 192.481 221.665 186.084 221.665 186.084C221.665 186.084 204.449 128.745 192.563 112.717C180.676 96.691 176.352 91.6738 176.352 91.6738L158.851 95.4996L150.437 100.388Z" fill="white"/>
<path fill-rule="evenodd" clip-rule="evenodd" d="M188.784 110.827L202.398 102.128C202.398 102.128 204.478 92.8089 188.06 81.8162L168.809 93.8799L188.784 110.827Z" fill="white"/>
<path fill-rule="evenodd" clip-rule="evenodd" d="M140.123 112.168C132.66 113.215 119.021 132.13 117.5 132.095C117.5 132.095 127.099 147.759 134.702 148.267C134.702 148.267 168.163 108.235 140.123 112.168" fill="white"/>
<path fill-rule="evenodd" clip-rule="evenodd" d="M166.471 99.8596C166.471 99.8596 155.623 91.754 155.999 88.5226C156.094 87.7085 157.598 86.3874 157.988 85.2145C160.092 78.904 149.95 62.6438 143.72 59.2165C138.818 56.5213 140.966 56.283 130.65 62.4135C120.334 68.544 126.211 79.1449 130.818 84.628C135.173 89.8107 140.161 92.0307 144.649 92.4053L151.029 106.578L166.471 99.8596Z" fill="#FFC6B2"/>
<path fill-rule="evenodd" clip-rule="evenodd" d="M146.894 111.111C144.842 106.078 148.727 99.7386 155.573 96.9467C162.42 94.1535 169.631 95.9697 171.687 101C173.737 106.032 166.848 113.596 163.003 115.165C159.157 116.733 148.945 116.142 146.894 111.111" fill="#FFC6B2"/>
<path fill-rule="evenodd" clip-rule="evenodd" d="M130.818 84.6287C130.818 84.6287 127.299 84.4341 126.909 86.7785C126.517 89.1243 133.358 89.1243 135.9 87.365L130.818 84.6287Z" fill="#FFC6B2"/>
<path fill-rule="evenodd" clip-rule="evenodd" d="M132.579 86.7782C131.91 82.5407 127.395 79.3901 127.62 75.2612C129.784 75.2784 131.174 72.5977 130.19 70.3062C129.802 69.406 129.145 68.6356 128.725 67.7473C128.307 66.8604 128.196 65.6981 128.838 65.1964C129.142 64.9594 129.554 64.9184 129.949 64.8786C133.157 64.549 138.655 65.5114 141.608 64.4166C144.42 63.3748 147.433 61.3481 147.14 57.9036C146.885 54.9039 144.236 52.4721 141.803 50.6346C140.409 49.5809 136.426 46.8261 134.923 47.0763C132.629 47.4575 132.073 50.5181 131.908 53.0797C130.303 51.552 127.936 51.7969 126.541 53.04C125.146 54.283 124.485 56.2581 123.878 58.1644C123.269 60.072 122.624 62.0524 121.247 63.3192C119.965 64.5 117.935 65.3936 118.201 67.4018C118.518 69.7952 121.645 70.6464 123.09 72.6877C122.734 72.1873 122.432 75.3829 122.637 75.9244C123.254 77.5566 124.794 78.6368 125.907 79.8852C128.278 82.546 129.438 85.2253 132.579 86.7782" fill="#FF7B5B"/>
<path fill-rule="evenodd" clip-rule="evenodd" d="M152.232 77.0886L144.215 81.2347C144.215 81.2347 153.844 88.2244 152.232 77.0886" fill="white"/>
<path fill-rule="evenodd" clip-rule="evenodd" d="M141.203 78.7328C141.641 79.5641 140.992 80.7662 139.754 81.4175C138.517 82.0688 137.159 81.9231 136.72 81.0918C136.283 80.2605 136.931 79.0598 138.169 78.4072C139.408 77.7558 140.764 77.9015 141.203 78.7328" fill="#FFB2A0"/>
<path fill-rule="evenodd" clip-rule="evenodd" d="M152.91 70.7367C153.348 71.5681 152.699 72.7701 151.461 73.4214C150.224 74.0727 148.866 73.9271 148.427 73.0957C147.991 72.2644 148.638 71.0624 149.876 70.4111C151.115 69.7598 152.471 69.9054 152.91 70.7367" fill="#FFB2A0"/>
<path fill-rule="evenodd" clip-rule="evenodd" d="M146.636 76.7949C146.599 76.7486 146.749 76.5513 147.096 76.3011C147.427 76.0456 148.003 75.7703 148.43 75.3096C148.854 74.8635 149.006 73.9329 148.357 73.8018C147.684 73.5728 146.918 74.3459 146.041 75.0806C145.824 75.2606 145.609 75.4394 145.396 75.6154C145.197 75.7981 144.779 76.0655 144.345 76.0112C143.518 75.8775 143.165 75.3255 142.848 74.9562C142.212 74.1407 141.821 73.2869 141.603 72.5482C141.173 71.0549 141.366 70.0912 141.47 70.0992C141.614 70.0926 141.662 71.0192 142.208 72.3324C142.484 72.985 142.895 73.7264 143.495 74.4266C143.788 74.7814 144.156 75.1124 144.418 75.123C144.528 75.1283 144.614 75.0912 144.82 74.9178C145.031 74.7417 145.242 74.563 145.457 74.383C145.899 74.0255 146.282 73.6641 146.787 73.3279C147.278 72.997 147.979 72.7878 148.606 73.0009C149.276 73.177 149.669 73.958 149.553 74.5008C149.477 75.0541 149.202 75.4619 148.889 75.7597C148.229 76.3117 147.639 76.4454 147.267 76.6122C146.885 76.7565 146.676 76.8465 146.636 76.7949" fill="#FF7B5B"/>
<path fill-rule="evenodd" clip-rule="evenodd" d="M144.648 92.406C144.648 92.406 149.762 92.4351 152.537 90.7261C152.537 90.7261 150.19 93.6093 145.493 94.3559L144.648 92.406Z" fill="#FFA192"/>
<path fill-rule="evenodd" clip-rule="evenodd" d="M146.865 69.4731C146.819 69.7259 146.104 69.804 145.348 70.1376C144.581 70.4474 144.028 70.9068 143.815 70.7638C143.597 70.6486 143.958 69.7352 144.993 69.2997C146.027 68.8615 146.932 69.2348 146.865 69.4731" fill="#22343D"/>
<path fill-rule="evenodd" clip-rule="evenodd" d="M136.844 76.0465C136.651 75.9035 136.954 75.0801 137.69 74.2554C138.435 73.4135 139.387 73.1328 139.488 73.3685C139.593 73.5975 139.014 74.131 138.361 74.871C137.698 75.6083 137.053 76.2027 136.844 76.0465" fill="#22343D"/>
<path fill-rule="evenodd" clip-rule="evenodd" d="M132.958 74.776C132.544 74.4689 132.221 73.1544 133.807 71.3831C135.407 69.5722 137.196 69.8912 137.41 70.3943C137.641 70.888 137.045 71.591 135.64 73.1835C134.215 74.7707 133.407 75.1123 132.958 74.776" fill="#FF7B5B"/>
<path fill-rule="evenodd" clip-rule="evenodd" d="M141.378 67.7987C141.149 67.3698 141.402 66.1214 143.464 65.2517C145.556 64.3529 146.95 65.3444 146.93 65.8593C146.926 66.3716 146.138 66.7304 144.301 67.522C142.45 68.2991 141.625 68.266 141.378 67.7987" fill="#FF7B5B"/>
<path d="M44.1813 85.2227C44.0685 85.0617 44.1607 84.5612 44.3875 84.1033C44.875 83.1194 46.7675 80.6978 48.8568 78.385C50.274 76.816 51.1674 75.9433 53.1525 74.1883C57.8971 69.994 62.0346 65.8232 64.7756 62.4716C69.2105 57.0489 72.273 51.0733 73.6321 45.1911C74.6798 40.6565 74.6049 36.0874 73.4228 32.4253C73.1567 31.6008 72.6666 30.3723 72.3596 29.7602C72.0889 29.2204 71.3256 28.0511 70.8599 27.4627C69.6593 25.9459 68.4323 24.809 67.0945 23.9739C65.4626 22.9553 63.9491 22.3609 62.1497 22.032C61.6408 21.9389 61.4108 21.9257 60.2957 21.925C59.1718 21.9244 58.9517 21.937 58.4175 22.0328C54.7882 22.6836 50.9849 25.1335 47.9057 28.8039C45.5905 31.5635 44.0884 34.4535 43.5629 37.1591C43.2919 38.554 43.2038 39.5868 43.2038 41.3671C43.2038 42.5894 43.1968 42.6972 43.0885 43.1344C43.02 43.4112 42.9339 43.6418 42.8763 43.7031C42.8187 43.7644 42.7794 43.8698 42.7794 43.9629C42.7794 44.1301 42.334 45.0965 42.1295 45.373C42.0046 45.5419 41.6992 45.707 41.5084 45.7087C41.4394 45.7094 41.3248 45.6444 41.2255 45.5485C41.1336 45.4598 40.9508 45.3165 40.8192 45.2302C40.6877 45.1439 40.5151 44.999 40.4358 44.9082C40.3565 44.8174 39.9952 44.2233 39.6328 43.588C38.2217 41.1137 37.3411 39.7669 35.9489 37.9536C33.3934 34.6252 29.713 30.8342 26.9516 28.686C24.0928 26.4621 20.8036 24.77 18.3885 24.281C15.2044 23.6363 12.3549 24.682 10.1677 27.2977C8.95913 28.7429 8.1839 30.5265 7.7289 32.9085C6.72995 38.1383 7.63649 44.8644 10.2232 51.4149C12.2104 56.4473 15.0671 60.8993 19.3903 65.7013C20.3158 66.7293 22.9655 69.407 24.0146 70.3745C25.9646 72.1727 28.365 74.1786 30.3083 75.6336C33.1032 77.7264 35.6473 79.3482 40.3748 82.051C41.5288 82.7108 42.648 83.3665 42.862 83.5082L43.251 83.7658V83.9922C43.251 84.2076 43.1221 84.6028 42.9771 84.8324C42.9357 84.898 42.8633 84.9385 42.7877 84.9385C42.5651 84.9385 39.7233 83.6031 37.8759 82.6304C33.7795 80.4736 30.7585 78.5695 27.6207 76.1669C24.0723 73.4498 21.0554 70.7596 18.314 67.868C14.4051 63.745 11.6708 59.8693 9.3508 55.1633C6.85771 50.1062 5.30259 44.421 4.966 39.1331C4.9044 38.1654 4.9046 36.0218 4.96637 35.1717C5.26655 31.041 6.48002 27.4879 8.44386 24.9895C8.82589 24.5035 9.82818 23.5242 10.3153 23.1611C11.3765 22.3699 12.3544 21.912 13.8058 21.5266C14.9805 21.2148 15.7321 21.0969 16.7527 21.0645C18.8041 20.9993 20.7732 21.5517 23.6914 23.0113C26.1276 24.2297 28.4099 25.7827 30.8505 27.8826C32.3713 29.1911 35.0496 31.8235 36.462 33.3979C37.3673 34.4072 38.8388 36.1631 39.3946 36.8974L39.7816 37.4088L39.9317 36.7146C41.2357 30.6809 45.5549 24.5471 50.8166 21.2566C52.5632 20.1644 54.1957 19.4747 56.3115 18.9352C59.2934 18.1749 61.7741 18.1947 64.2091 18.9984C65.8534 19.5412 67.8269 20.5807 69.2542 21.6559C73.1942 24.6241 75.9614 29.3708 76.8174 34.6295C77.2422 37.2394 77.2601 40.4462 76.8658 43.2815C76.3947 46.6683 75.1207 50.8868 73.4484 54.5975C73.0826 55.4092 72.0625 57.4489 71.6091 58.2752C68.6562 63.6571 64.5009 68.797 58.1026 74.9822C56.7413 76.2982 54.3776 78.4838 53.6002 79.1454C51.7077 80.7561 48.1335 83.1254 45.2187 84.7015C44.9136 84.8665 44.5814 85.0722 44.4804 85.1586C44.3794 85.245 44.2855 85.3157 44.2716 85.3157C44.2578 85.3157 44.2171 85.2739 44.1813 85.2227H44.1813Z" fill="#E8EFF3"/>
<path d="M328.418 266.112C328.318 266.102 327.441 266.039 326.47 265.971C325.499 265.903 323.965 265.793 323.061 265.725C318.696 265.4 315.466 265.211 311.656 265.057C309.506 264.97 299.925 264.987 296.659 265.083C293.861 265.166 290.264 265.186 289.687 265.122L289.331 265.083L289.229 265.26C289.057 265.557 288.776 265.645 288.601 265.457C288.549 265.4 288.43 265.308 288.339 265.254C288.247 265.199 288.136 265.088 288.093 265.006C288.033 264.893 287.976 264.847 287.852 264.814C287.593 264.745 287.431 264.611 287.281 264.34C287.075 263.97 287.095 263.791 287.35 263.726L287.456 263.699L287.462 252.459C287.469 240.246 287.436 236.457 287.242 226.936C287.139 221.861 287.092 218.502 287.086 215.731L287.08 213.038L287.172 212.961C287.31 212.848 287.675 212.813 287.848 212.896C287.998 212.968 287.993 212.951 288.073 213.601C288.394 216.206 288.957 230.177 289.23 242.312C289.263 243.774 289.3 245.416 289.312 245.96C289.325 246.504 289.362 248.22 289.395 249.773C289.5 254.679 289.649 259.629 289.747 261.48C289.775 261.99 289.797 262.727 289.798 263.118L289.799 263.829H290.388C291.054 263.829 292.671 263.752 295.116 263.602C304.783 263.013 310.922 262.914 320.93 263.189C322.135 263.222 323.971 263.269 325.009 263.293C330.543 263.42 330.372 263.411 332.355 263.647C334.059 263.85 335.684 264.105 337.211 264.41C337.943 264.557 338.106 264.577 338.413 264.557C338.758 264.536 338.768 264.538 338.767 264.625C338.767 264.675 338.753 264.735 338.737 264.759C338.685 264.836 338.333 265.064 338.131 265.152C337.464 265.443 335.151 265.793 332.274 266.038C331.567 266.098 328.835 266.15 328.418 266.111L328.418 266.112ZM292.798 259.84C292.638 259.697 292.458 259.362 292.458 259.205C292.458 259.138 292.53 258.932 292.617 258.746C292.705 258.56 293.032 257.787 293.344 257.028C294.678 253.777 295.823 251.351 297.44 248.351C299.781 244.006 302.392 240.028 304.064 238.258C304.646 237.642 305.011 237.407 305.628 237.251C306.556 237.015 306.875 237.037 307.577 237.384C308.64 237.91 309.501 238.78 312.088 241.942C313.663 243.867 314.422 244.74 315.319 245.658C315.448 245.79 315.568 245.898 315.586 245.898C315.627 245.898 315.76 245.474 316.653 242.497C318.282 237.068 320.075 231.464 320.921 229.162C322.543 224.747 324.499 219.988 325.571 217.849C325.786 217.419 325.969 217.052 325.976 217.034C325.996 216.985 325.78 217.117 324.826 217.737C322.529 219.228 319.919 221.086 315.694 224.235C313.674 225.741 313.371 225.943 313.13 225.946C313.03 225.947 312.817 225.709 312.754 225.525C312.708 225.391 312.709 225.39 313.096 225.103C313.23 225.004 313.587 224.716 313.888 224.464C316.075 222.633 318.142 220.953 321.27 218.464C322.683 217.339 322.902 217.162 323.59 216.592C324.619 215.737 325.061 215.343 325.678 214.731C326.235 214.179 326.252 214.166 326.49 214.119C326.624 214.092 326.761 214.059 326.795 214.046C326.828 214.032 326.947 214.007 327.058 213.989C327.17 213.971 327.311 213.944 327.372 213.929C327.512 213.893 327.646 213.927 327.749 214.023C327.793 214.064 327.907 214.121 328.001 214.15C328.223 214.216 328.382 214.446 328.562 214.959C328.791 215.608 330.302 221.849 330.509 222.999C330.786 224.536 331.085 226.741 331.484 230.186C331.73 232.314 331.887 233.543 331.931 233.699C331.955 233.782 331.853 233.923 331.795 233.887C331.702 233.829 331.361 233.218 331.117 232.675C330.515 231.33 329.588 228.559 328.715 225.493C328.222 223.761 328.025 222.925 327.32 219.573C326.909 217.621 326.679 216.606 326.649 216.617C326.579 216.644 326.355 217.431 325.84 219.454C324.35 225.313 323.202 229.399 322.174 232.501C320.647 237.106 320.155 238.599 319.066 241.941C317.702 246.123 317.499 246.697 317.072 247.58C316.717 248.314 316.471 248.618 316.167 248.7C315.934 248.763 315.823 248.721 315.435 248.423C314.545 247.741 312.872 245.889 310.843 243.342C308.937 240.949 307.867 239.745 307.283 239.337C306.781 238.986 306.296 238.918 305.864 239.138C304.767 239.694 302.18 243.114 299.53 247.509C297.663 250.608 295.959 253.858 294.475 257.151C293.646 258.992 293.525 259.249 293.325 259.573C293.159 259.844 293.051 259.956 292.958 259.953C292.94 259.953 292.868 259.902 292.798 259.84V259.84Z" fill="#E8EFF3"/>
</svg>
